# xmcd
#
# Track frame offsets: 
#        150
#        21139
#        42906
#        57656
#        78834
#        107970
#        123940
#        142745
#        167265
#        188905
#        206435
#
# Disc length: 3253 seconds
#
# Revision: 2
# Processed by: cddbd v1.4PL0 Copyright (c) Steve Scherf et al.
# Submitted via: ExactAudioCopy v0.90b4
#
DISCID=8a0cb30b
DTITLE=Swamp Mama Johnson - Peachfish Stew
DYEAR=1997
DGENRE=Blues
TTITLE0=Between The Lines
TTITLE1=Drivin' Heart
TTITLE2=Irresistible Dish
TTITLE3=Another Day
TTITLE4=Voodoo Angel
TTITLE5=People's Choice
TTITLE6=Measure Up
TTITLE7=Pucker Up Buttercup
TTITLE8=Wetlands
TTITLE9=Sistershake
TTITLE10=Addiction
EXTD=
EXTT0=
EXTT1=
EXTT2=
EXTT3=
EXTT4=
EXTT5=
EXTT6=
EXTT7=
EXTT8=
EXTT9=
EXTT10=
PLAYORDER=
